<?xml version="1.0" encoding="utf-8"?>
<!-- Generator: Adobe Illustrator 24.0.0, SVG Export Plug-In . SVG Version: 6.00 Build 0)  -->
<svg version="1.1" id="Layer_1" xmlns="http://www.w3.org/2000/svg" xmlns:xlink="http://www.w3.org/1999/xlink" x="0px" y="0px"
	 viewBox="0 0 203 208" style="enable-background:new 0 0 203 208;" xml:space="preserve">
<style type="text/css">
	.st0{fill:#71CBCF;}
</style>
<path class="st0" d="M26.5,9.7C40.3-0.1,60.9,0,78,4.7c14,3.9,24,7.5,38.8,7.6c14.9,0.1,51.4-9.4,61.6,2.1
	c8.8,9.9,6.8,35.2,7.2,47.4c0.1,4.4,0.3,8.8,0.4,13.2c0.1,4.7,0.3,9.4,0.4,14c0.6,25.4,0.5,50.9-0.4,76.3c-0.1,3.9-0.3,8-1.8,11.6
	c-5.2,12.7-23.1,21.8-36.1,21.8c-14.2,0.1-28.1-3.7-42.2-5.9c-13.5-2.1-28.2-4-41.2-0.1c-12.6,3.8-22.8,5.1-36,5.2
	c-1.8,0-3.7,0-5.2-1c-1.4-1-2.1-2.6-2.7-4.1c-6.3-15.3-12.6-31-13.7-47.5c-1-14.7,3.1-26.9,10.9-39.1c5.2-8.2,6-8.2,3.1-18.7
	c-2.4-8.3-5.9-16.3-7.5-24.8c-2.8-14.9-4.1-31.5,4.3-44.2C20.2,15,23.2,12,26.5,9.7z"/>
</svg>
