<?xml version="1.0" encoding="utf-8"?>
<!-- Generator: Adobe Illustrator 24.0.0, SVG Export Plug-In . SVG Version: 6.00 Build 0)  -->
<svg version="1.1" id="Layer_1" xmlns="http://www.w3.org/2000/svg" xmlns:xlink="http://www.w3.org/1999/xlink" x="0px" y="0px"
	 viewBox="0 0 159 49.2" style="enable-background:new 0 0 159 49.2;" xml:space="preserve">
<style type="text/css">
	.st0{fill:#71BF47;}
</style>
<path class="st0" d="M17.1,5.2c4.5-2.1,9.3-3.4,14.2-4.1C46.9-1,62.2-0.3,76.8,4.6C89,8.7,103.1,9.5,116.6,7
	c5.6-1.1,11.3-2.7,16.9-2.6c10.2,0.3,18.8,7.2,20.3,15.5c1.5,8.3-3.5,17.5-11.9,23.1c-21.9,14.6-55.8-0.9-80.6-0.5
	c-12.9,0.2-26.5,3.3-39.2,2.3c-6-0.5-12.2-1.7-16.9-5.5C-3.7,32,0,19.3,7.2,12.1C10.1,9.2,13.5,7,17.1,5.2z"/>
</svg>
